<svg width="104" height="39" viewBox="0 0 104 39" fill="none" xmlns="http://www.w3.org/2000/svg">
<path d="M21.7257 31.344H28.9991V37.968C28.9991 38.16 28.809 38.4 28.4762 38.4H22.2961C12.8359 38.4 0 35.616 0 19.2C0 2.16 12.9785 0 22.2961 0H28.4762C28.809 0 28.9991 0.239999 28.9991 0.431999V15.504H21.7257V7.008C13.4539 6.576 7.32138 10.08 7.32138 19.2C7.32138 31.056 17.1144 31.536 21.7257 31.344ZM60.3094 37.824C60.4521 38.112 60.2144 38.4 59.8816 38.4H53.3212C53.1786 38.4 52.9409 38.304 52.8934 38.112L45.3822 16.704L37.9662 38.112C37.9186 38.304 37.6809 38.4 37.4908 38.4H30.9779C30.5501 38.4 30.3599 38.112 30.5026 37.824L44.9068 0.288C45.0495 -0.0959999 45.715 -0.0959999 45.8576 0.288L60.3094 37.824ZM95.8755 29.136V16.944L86.1776 36.576C86.13 36.72 85.8923 36.864 85.7497 36.864H79.9024C79.7598 36.864 79.4746 36.72 79.427 36.576L69.1111 16.416V37.968C69.1111 38.16 68.8734 38.4 68.5882 38.4H62.313C61.9802 38.4 61.8376 38.16 61.8376 37.968V0.431999C61.8376 0.239999 61.9802 0 62.313 0H68.6832C68.8259 0 69.1111 0.144 69.1586 0.288L82.8023 28.416L95.7804 0.288C95.8755 0.144 96.1132 0 96.3033 0H102.578C102.911 0 103.101 0.239999 103.101 0.431999V29.136H95.8755Z" fill="black"/>
</svg>
